<mxfile host="app.diagrams.net" modified="2021-10-28T09:07:15.921Z" agent="5.0 (Windows NT 10.0; Win64; x64) AppleWebKit/537.36 (KHTML, like Gecko) Chrome/95.0.4638.54 Safari/537.36" etag="3z4F9u_c2gwckeo8JbK-" version="15.6.1" type="github">
  <diagram id="6iXot3geKClnZhPpohFx" name="第 1 页">
    <mxGraphModel dx="1038" dy="539" grid="1" gridSize="10" guides="1" tooltips="1" connect="1" arrows="1" fold="1" page="1" pageScale="1" pageWidth="827" pageHeight="1169" math="0" shadow="0">
      <root>
        <mxCell id="0" />
        <mxCell id="1" parent="0" />
        <mxCell id="892-sll2_VXMibmidMwd-2" style="edgeStyle=orthogonalEdgeStyle;rounded=0;orthogonalLoop=1;jettySize=auto;html=1;exitX=1;exitY=0.5;exitDx=0;exitDy=0;entryX=0;entryY=0.5;entryDx=0;entryDy=0;" edge="1" parent="1" source="892-sll2_VXMibmidMwd-1" target="892-sll2_VXMibmidMwd-4">
          <mxGeometry relative="1" as="geometry">
            <mxPoint x="290" y="215" as="targetPoint" />
          </mxGeometry>
        </mxCell>
        <mxCell id="892-sll2_VXMibmidMwd-3" value="教室分配请求" style="edgeLabel;html=1;align=center;verticalAlign=middle;resizable=0;points=[];" vertex="1" connectable="0" parent="892-sll2_VXMibmidMwd-2">
          <mxGeometry x="-0.1867" y="-1" relative="1" as="geometry">
            <mxPoint as="offset" />
          </mxGeometry>
        </mxCell>
        <mxCell id="892-sll2_VXMibmidMwd-1" value="教务处" style="rounded=0;whiteSpace=wrap;html=1;" vertex="1" parent="1">
          <mxGeometry x="100" y="200" width="70" height="30" as="geometry" />
        </mxCell>
        <mxCell id="892-sll2_VXMibmidMwd-10" style="edgeStyle=orthogonalEdgeStyle;rounded=0;orthogonalLoop=1;jettySize=auto;html=1;exitX=1;exitY=0.5;exitDx=0;exitDy=0;entryX=0;entryY=0.5;entryDx=0;entryDy=0;" edge="1" parent="1" source="892-sll2_VXMibmidMwd-4" target="892-sll2_VXMibmidMwd-14">
          <mxGeometry relative="1" as="geometry">
            <mxPoint x="480" y="215" as="targetPoint" />
          </mxGeometry>
        </mxCell>
        <mxCell id="892-sll2_VXMibmidMwd-11" value="课程对应教室" style="edgeLabel;html=1;align=center;verticalAlign=middle;resizable=0;points=[];" vertex="1" connectable="0" parent="892-sll2_VXMibmidMwd-10">
          <mxGeometry x="-0.2711" relative="1" as="geometry">
            <mxPoint as="offset" />
          </mxGeometry>
        </mxCell>
        <mxCell id="892-sll2_VXMibmidMwd-4" value="分析可用教室" style="ellipse;whiteSpace=wrap;html=1;aspect=fixed;" vertex="1" parent="1">
          <mxGeometry x="310" y="175" width="80" height="80" as="geometry" />
        </mxCell>
        <mxCell id="892-sll2_VXMibmidMwd-7" style="edgeStyle=orthogonalEdgeStyle;rounded=0;orthogonalLoop=1;jettySize=auto;html=1;exitX=0.5;exitY=1;exitDx=0;exitDy=0;entryX=0.5;entryY=0;entryDx=0;entryDy=0;" edge="1" parent="1" source="892-sll2_VXMibmidMwd-5" target="892-sll2_VXMibmidMwd-4">
          <mxGeometry relative="1" as="geometry" />
        </mxCell>
        <mxCell id="892-sll2_VXMibmidMwd-5" value="课程文件" style="html=1;dashed=0;whitespace=wrap;shape=partialRectangle;right=0;left=0;" vertex="1" parent="1">
          <mxGeometry x="300" y="80" width="100" height="30" as="geometry" />
        </mxCell>
        <mxCell id="892-sll2_VXMibmidMwd-8" style="edgeStyle=orthogonalEdgeStyle;rounded=0;orthogonalLoop=1;jettySize=auto;html=1;exitX=0.5;exitY=0;exitDx=0;exitDy=0;entryX=0.5;entryY=1;entryDx=0;entryDy=0;" edge="1" parent="1" source="892-sll2_VXMibmidMwd-6" target="892-sll2_VXMibmidMwd-4">
          <mxGeometry relative="1" as="geometry" />
        </mxCell>
        <mxCell id="892-sll2_VXMibmidMwd-6" value="教室文件" style="html=1;dashed=0;whitespace=wrap;shape=partialRectangle;right=0;left=0;" vertex="1" parent="1">
          <mxGeometry x="300" y="330" width="100" height="30" as="geometry" />
        </mxCell>
        <mxCell id="892-sll2_VXMibmidMwd-12" value="课程数据" style="text;html=1;align=center;verticalAlign=middle;resizable=0;points=[];autosize=1;strokeColor=none;fillColor=none;" vertex="1" parent="1">
          <mxGeometry x="330" y="130" width="60" height="20" as="geometry" />
        </mxCell>
        <mxCell id="892-sll2_VXMibmidMwd-13" value="教室数据" style="text;html=1;align=center;verticalAlign=middle;resizable=0;points=[];autosize=1;strokeColor=none;fillColor=none;" vertex="1" parent="1">
          <mxGeometry x="330" y="280" width="60" height="20" as="geometry" />
        </mxCell>
        <mxCell id="892-sll2_VXMibmidMwd-14" value="教室分配文件" style="html=1;dashed=0;whitespace=wrap;shape=partialRectangle;right=0;left=0;" vertex="1" parent="1">
          <mxGeometry x="570" y="200" width="100" height="30" as="geometry" />
        </mxCell>
      </root>
    </mxGraphModel>
  </diagram>
</mxfile>
